<?xml version="1.0" encoding="UTF-8" standalone="no"?>
<!-- Created with Inkscape (http://www.inkscape.org/) -->

<svg
   width="339.98959mm"
   height="134.9375mm"
   viewBox="0 0 339.98959 134.9375"
   version="1.1"
   id="svg1"
   xml:space="preserve"
   inkscape:version="1.4.3 (0d15f750, 2025-12-25)"
   sodipodi:docname="logo.svg"
   xmlns:inkscape="http://www.inkscape.org/namespaces/inkscape"
   xmlns:sodipodi="http://sodipodi.sourceforge.net/DTD/sodipodi-0.dtd"
   xmlns="http://www.w3.org/2000/svg"
   xmlns:svg="http://www.w3.org/2000/svg"><sodipodi:namedview
     id="namedview1"
     pagecolor="#505050"
     bordercolor="#eeeeee"
     borderopacity="1"
     inkscape:showpageshadow="0"
     inkscape:pageopacity="0"
     inkscape:pagecheckerboard="0"
     inkscape:deskcolor="#505050"
     inkscape:document-units="mm"
     inkscape:zoom="0.38005931"
     inkscape:cx="644.63623"
     inkscape:cy="340.73629"
     inkscape:window-width="1440"
     inkscape:window-height="776"
     inkscape:window-x="0"
     inkscape:window-y="25"
     inkscape:window-maximized="0"
     inkscape:current-layer="layer1" /><defs
     id="defs1" /><g
     inkscape:label="Capa 1"
     inkscape:groupmode="layer"
     id="layer1"
     transform="translate(67.071861,-98.252411)"><path
       style="fill:#0070c1;stroke-width:0.0884784"
       d="m -36.309803,229.52771 c -2.185093,-1.38184 -5.334519,-6.01651 -7.651279,-11.25958 -0.534891,-1.21048 -1.069108,-2.41312 -1.187174,-2.67249 -0.118131,-0.25955 -0.335805,-0.75456 -0.483831,-1.10047 -0.148039,-0.34565 -0.534243,-1.19473 -0.858235,-1.88642 -0.584967,-1.24887 -2.258795,-5.33184 -3.54458,-8.64634 -0.368951,-0.95111 -0.782991,-2.01224 -0.920072,-2.35808 -0.436708,-1.10175 -2.136611,-6.22002 -2.714998,-8.17467 -0.307023,-1.0376 -0.82137,-2.66465 -1.142991,-3.61576 -0.321634,-0.95112 -0.688332,-2.1537 -0.814882,-2.67249 -0.21472,-0.8802 -1.267275,-4.45362 -1.944816,-6.60266 -0.16357,-0.51847 -0.417007,-1.43841 -0.563219,-2.04368 -0.1462,-0.60521 -0.379664,-1.38337 -0.518804,-1.72922 -0.357669,-0.88913 -2.475925,-8.77541 -2.91354,-10.84722 -0.2009,-0.95105 -0.500941,-2.43665 -0.666777,-3.30129 -0.165824,-0.86464 -0.441967,-2.06728 -0.613632,-2.67249 -0.171678,-0.60521 -0.398342,-1.87864 -0.503701,-2.82969 -0.183646,-1.65779 -0.342799,-2.80559 -1.226991,-8.84863 -0.218697,-1.49466 -0.402992,-4.04139 -0.409533,-5.65938 -0.0065,-1.618 -0.142184,-4.85188 -0.301414,-7.18644 -0.375998,-5.51251 -0.37671,-5.18637 0.02137,-9.74675 0.302218,-3.46162 0.741309,-5.66473 1.639257,-8.22466 0.142003,-0.40497 0.331504,-0.94825 0.421113,-1.20762 0.08963,-0.25956 0.407745,-0.89608 0.70697,-1.41487 0.299226,-0.51912 0.626443,-1.15545 0.727139,-1.41488 1.001882,-2.58059 4.980347,-6.57147 8.487027,-8.5135 1.734461,-0.96055 7.282444,-1.08931 9.626729,-0.22321 0.756386,0.27933 1.684683,0.57779 2.06287,0.66382 0.818443,0.18558 4.470028,1.64089 5.638524,2.24725 1.939091,1.00628 8.863841,4.95921 9.545074,5.44874 0.408911,0.29399 1.522862,1.09218 2.475433,1.77398 2.746266,1.96569 4.360459,3.42731 4.106142,3.71806 -0.1294,0.14795 -1.947693,-0.35713 -4.054861,-1.1256 -6.919996,-2.52447 -10.584287,-3.18491 -14.82229,-2.67173 -7.845896,0.9501 -13.896621,6.79321 -16.255607,15.69777 -1.593573,6.01536 -2.244962,23.19726 -1.107139,29.20313 0.245717,1.29689 0.44685,2.69149 0.44698,3.09913 9.1e-5,0.40751 0.19125,1.75166 0.424726,2.98689 0.233477,1.23523 0.61836,3.30697 0.855321,4.60393 0.399183,2.18501 0.586482,3.07528 1.455248,6.91706 0.175978,0.77816 0.487444,2.19304 0.692165,3.14409 0.204708,0.95112 0.576172,2.50745 0.825464,3.45856 0.249279,0.95106 0.627906,2.43666 0.841396,3.3013 0.21349,0.86464 0.583244,2.31332 0.821694,3.21928 0.238438,0.90597 0.601327,2.3313 0.806411,3.16744 0.903647,3.684 3.731633,11.27399 5.117816,13.73558 0.29214,0.51912 0.617673,1.15551 0.723408,1.41488 0.998269,2.44883 4.872126,7.4069 6.051554,7.74528 2.438051,0.69947 3.469609,-0.60967 7.30642,-9.27342 2.434632,-5.49746 2.322226,-5.27598 4.169378,-8.21638 1.676859,-2.66936 2.097259,-3.27387 4.144042,-5.95911 1.600398,-2.09962 7.222148,-8.44099 8.934421,-10.07812 0.813897,-0.77816 1.614038,-1.56608 1.7781,-1.7509 1.8977324,-2.13807 8.9168568,-6.10847 13.9132656,-7.87009 0.832031,-0.29335 1.9459824,-0.70673 2.4754461,-0.91872 1.1076565,-0.44322 2.4836973,-0.85896 5.7760453,-1.74458 6.966885,-1.87398 9.434482,-2.14489 9.571239,-1.05067 0.127327,1.01846 -0.413198,1.30264 -3.804507,2.00032 -4.091789,0.84174 -7.9853474,2.13386 -8.6409985,2.86757 -0.1437256,0.16071 -0.4218896,0.29272 -0.6181264,0.29272 -0.419338,0 -3.0269041,1.31699 -6.6808201,3.37419 -6.3971898,3.60173 -16.626502,15.70886 -21.190141,25.08005 -1.080792,2.21931 -3.797965,8.44411 -4.666251,10.68995 -2.500187,6.46669 -5.835046,13.36659 -7.371535,15.25186 -0.815283,1.00029 -3.121421,1.21514 -4.395497,0.40943 z M 7.3610818,204.76698 c 0,-0.24935 0.1110065,-0.53123 0.2465589,-0.62753 0.1356171,-0.0957 0.4990243,-0.72791 0.8075888,-1.40455 0.3085646,-0.67676 1.3038672,-2.37568 2.2117895,-3.77538 1.586642,-2.44616 4.189403,-7.22298 6.096928,-11.18963 1.687947,-3.51002 6.865062,-15.60625 6.865062,-16.04003 0,-0.0944 0.858442,-2.33947 2.041964,-5.33994 0.557779,-1.41399 2.771394,-7.59784 3.489038,-9.74675 0.346517,-1.03753 0.729056,-2.02085 0.850114,-2.18513 0.12098,-0.16454 0.224279,-0.51784 0.229409,-0.78601 0.0052,-0.26785 0.248476,-1.05328 0.540771,-1.74503 0.292283,-0.69169 0.535617,-1.39199 0.540759,-1.5562 0.0052,-0.16454 0.3675,-1.43758 0.805257,-2.82969 1.191488,-3.78897 2.367393,-8.73977 2.617514,-11.02024 0.0759,-0.69169 0.26468,-2.17729 0.419597,-3.3013 0.88554,-6.42549 -0.322554,-13.16698 -2.995571,-16.71616 -2.672214,-3.5481 -9.104441,-5.47616 -14.452418,-4.33213 -0.756386,0.16198 -2.168643,0.43876 -3.138338,0.61605 -0.969695,0.17665 -2.393091,0.51465 -3.163078,0.75074 -0.769987,0.23596 -2.3901512,0.67364 -3.6003687,0.97267 -1.2102175,0.2991 -2.4231424,0.67485 -2.6953869,0.83518 -0.2722445,0.16007 -1.0148745,0.42346 -1.6503061,0.58417 -0.6354056,0.1607 -1.9598161,0.51146 -2.9431114,0.77956 -3.7161289,1.01202 -4.8574887,1.17158 -7.0137748,0.98071 -4.8130211,-0.42601 -10.5155591,-2.89602 -18.8408951,-8.16058 -4.106219,-2.59653 -8.224161,-4.73823 -11.00198,-5.722 -0.832031,-0.29464 -2.007858,-0.71988 -2.612967,-0.945 -1.017647,-0.37881 -5.042262,-1.15366 -8.21591,-1.58222 -1.023371,-0.13838 -1.263622,-0.26784 -1.017582,-0.54908 0.224436,-0.25637 1.798242,-0.3565 5.190366,-0.32971 4.997886,0.0383 9.825777,1.06374 11.803598,2.50483 0.33504,0.24425 0.754857,0.44386 0.932908,0.44386 0.178051,0 3.678967,1.89592 7.779824,4.21319 9.727153,5.4965 9.046309,5.21112 13.3496196,5.59484 5.0230919,0.44769 9.03584277,-0.0944 11.9847053,-1.62054 2.2756473,-1.17752 5.4937753,-2.54648 7.8389151,-3.33472 0.680741,-0.22894 2.104125,-0.75316 3.163065,-1.16526 10.45968,-4.07073 17.458909,-3.9118 25.153981,0.57077 7.493085,4.36516 9.605707,14.08614 6.214968,28.59747 -0.524723,2.24559 -2.10358,8.00427 -2.499875,9.11794 -0.184618,0.51848 -0.604643,1.72137 -0.933388,2.67249 -0.328758,0.95105 -0.70811,2.01224 -0.843015,2.35809 -0.134918,0.34565 -0.509646,1.33624 -0.83273,2.20088 -0.626935,1.67782 -3.863067,9.12502 -4.986772,11.47597 -0.595835,1.24657 -1.166385,2.35668 -2.349259,4.57089 -0.181263,0.33928 -0.837717,1.57412 -1.458797,2.74398 -0.62108,1.16992 -1.702273,3.07994 -2.402664,4.24457 -0.700403,1.16463 -1.651523,2.75418 -2.113619,3.53235 -3.179282,5.35397 -10.658507,15.91829 -15.025067,21.22277 -0.854103,1.03753 -2.0826747,2.55853 -2.7301395,3.37987 -1.2173158,1.54433 -1.6572877,1.82054 -1.6572877,1.0404 z M 58.434342,186.15235 c -0.104012,-0.11862 -0.189087,-3.58554 -0.189087,-7.70364 0,-8.74985 -0.400504,-8.03367 4.308272,-7.70434 4.689515,0.32779 6.309226,1.84063 6.094713,5.69171 -0.192895,3.46283 -1.925037,4.88874 -5.938656,4.88874 -3.095568,0 -3.321259,0.18495 -3.423147,2.8047 -0.07215,1.85402 -0.373614,2.56975 -0.852095,2.02283 z m 7.799991,-7.26424 c 1.711017,-1.74772 1.363852,-4.91885 -0.670883,-6.12799 -1.178121,-0.70011 -5.345892,-1.02006 -5.849826,-0.44897 -0.391424,0.44323 -0.465087,6.45776 -0.08549,6.98058 0.677451,0.93313 5.591518,0.63263 6.606211,-0.40369 z m 11.608203,7.25907 c -0.261636,-0.12053 -0.34381,-1.9611 -0.34381,-7.70013 0,-7.54153 0,-7.54153 0.618852,-7.44108 0.614914,0.10012 0.619746,0.14349 0.756386,6.86029 l 0.137534,6.75986 3.501577,0.088 c 3.071061,0.0772 3.534866,0.15879 3.772254,0.66611 0.148868,0.31823 0.192506,0.66745 0.09702,0.7767 -0.203542,0.23277 -8.033597,0.22384 -8.539771,-0.0128 z m 19.322847,-0.2704 c -2.596077,-1.59963 -3.00114,-2.86591 -3.014922,-9.4252 -0.01166,-5.34504 -0.01166,-5.34504 0.676375,-5.34504 0.687632,0 0.687632,0 0.825154,5.50224 0.08251,3.30219 0.264809,5.75498 0.455852,6.13449 0.907533,1.80275 2.956414,2.66465 4.874688,2.0507 2.50997,-0.80329 3.18768,-2.8244 3.19274,-9.52144 0.003,-4.1123 0.0301,-4.3232 0.55336,-4.3232 0.81284,0 0.84706,10.5385 0.0398,12.25911 -1.29673,2.76387 -5.215793,4.13934 -7.603056,2.66834 z m 18.083887,-0.29591 c -1.05241,-0.55993 -1.44402,-0.94295 -1.44402,-1.41175 0,-0.73945 0.46422,-0.8251 1.24531,-0.22959 3.19957,2.43883 8.53903,0.5255 6.9971,-2.50763 -0.51999,-1.0228 -1.25607,-1.46162 -4.11666,-2.45432 -3.79569,-1.31711 -4.84438,-2.99448 -3.60181,-5.7611 1.05223,-2.34278 5.69234,-3.45161 7.80916,-1.86614 1.57146,1.17707 0.6299,1.92475 -1.2769,1.01406 -1.39536,-0.66643 -2.88826,-0.57715 -4.16816,0.24872 -2.32964,1.5039 -1.32918,4.33882 1.7951,5.08676 3.72239,0.89111 5.21866,2.20363 5.21866,4.57772 0,3.5046 -4.65979,5.32457 -8.45778,3.30327 z m 111.05127,-20.91213 -7.56386,-0.16454 5.08842,-0.25446 c 8.30068,-0.41516 46.00081,-0.14285 46.13958,0.3329 0.11917,0.40879 -26.45415,0.46108 -43.66414,0.0861 z m -107.13182,-0.94334 -7.70138,-0.16454 8.25149,-0.28124 c 9.00094,-0.30675 86.06321,0.051 91.04142,0.42601 3.42278,0.25573 -79.71672,0.27359 -91.59153,0.0191 z m -63.054661,-1.02937 c 0.124866,-0.42664 41.155751,-0.35777 47.338791,0.0797 1.68498,0.11926 -8.302812,0.23851 -22.19512,0.2653 -20.099893,0.0383 -25.235209,-0.0319 -25.143671,-0.34502 z M 177.2042,153.46062 c -12.99116,-3.83004 -14.11368,-23.70656 -1.65031,-29.22162 2.32751,-1.02994 8.81734,-0.87727 10.95602,0.25764 3.64547,1.93463 4.40923,3.28944 2.77759,4.92707 -0.98155,0.98511 -0.98155,0.98511 -1.99412,0.11097 -2.73124,-2.35739 -8.0896,-3.04525 -11.07217,-1.42132 -6.18727,3.36883 -7.63038,13.36698 -2.68954,18.63358 3.71293,3.95771 10.40425,4.24303 13.86709,0.59118 0.75329,-0.79443 0.92683,-0.76267 1.97637,0.36159 1.47053,1.57552 0.93214,2.66968 -2.16071,4.39112 -0.66474,0.36989 -1.45619,0.8274 -1.75875,1.01655 -0.56724,0.35458 -7.27279,0.64118 -8.25147,0.35267 z M 59.895548,138.57099 c 0,-14.77133 0,-14.77133 0.713978,-14.97617 1.654127,-0.47447 13.37616,0.11352 15.151475,0.7605 6.624941,2.41331 10.01182,8.52689 9.136837,16.49264 -0.227687,2.0727 -0.475191,2.97713 -1.435391,5.24498 -0.685365,1.61876 -3.153092,4.26836 -4.899314,5.26048 -3.315145,1.88355 -3.93164,1.9889 -11.636725,1.9889 h -7.03086 z m 14.990198,10.46994 c 4.105805,-1.70792 6.463664,-5.51136 6.463664,-10.42632 0,-5.15059 -2.036432,-8.49608 -6.463664,-10.61846 -1.164895,-0.55866 -9.295885,-1.03141 -10.717922,-0.62371 -0.9248,0.2653 -1.13114,21.53941 -0.215291,22.19622 0.806423,0.57842 9.254437,0.17027 10.933213,-0.52805 z m 16.273781,4.09177 c -0.100903,-0.11543 -0.183374,-6.68933 -0.183374,-14.60903 0,-13.91453 0.018,-14.41043 0.532015,-14.72496 0.722061,-0.44195 16.917282,-0.44195 17.639332,0 0.36504,0.2232 0.53201,0.65935 0.53201,1.38917 0,2.16855 0.38919,2.05829 -7.26323,2.05829 -5.022731,0 -7.020137,0.10395 -7.259377,0.37754 -0.346892,0.39667 -0.483287,7.28956 -0.163103,8.24329 0.145344,0.43302 0.962648,0.49743 6.31647,0.49743 6.8186,0 6.71895,-0.0319 6.71895,2.1417 0,1.54421 -0.27724,1.61271 -6.89792,1.70365 l -6.166929,0.0848 -0.07603,4.43493 c -0.05894,3.43649 0.0078,4.51471 0.297606,4.78945 0.251287,0.23851 2.753908,0.382 7.639933,0.43812 l 7.26624,0.0842 0.0832,1.65065 0.0832,1.65065 h -9.45773 c -5.201762,0 -9.540266,-0.0944 -9.641104,-0.20982 z m 25.121183,-14.56171 c 0,-14.77133 0,-14.77133 0.72537,-14.97948 1.8054,-0.51784 2.24222,-0.0778 7.83444,7.89923 2.90959,4.15025 5.364,7.61659 5.45428,7.70306 0.0903,0.0867 0.8419,1.14486 1.67031,2.35203 1.78021,2.59418 2.37194,3.30735 2.74392,3.30735 0.17788,0 0.27506,-3.71575 0.27506,-10.51847 v -10.51859 l 0.96267,-0.20663 c 0.52946,-0.11352 1.39587,-0.11352 1.92535,0 l 0.96266,0.20663 v 14.7631 14.7631 h -1.61765 c -1.55057,0 -1.64922,-0.051 -2.37896,-1.17904 -0.41873,-0.64845 -0.89925,-1.32056 -1.06784,-1.49345 -0.1686,-0.17283 -0.98262,-1.3048 -1.80895,-2.51529 -0.82636,-1.21048 -1.57656,-2.27161 -1.66712,-2.35808 -0.0905,-0.0867 -0.71239,-0.95023 -1.38183,-1.91946 -3.34506,-4.8432 -7.83875,-11.1548 -8.08768,-11.35964 -0.93383,-0.76828 -0.96839,-0.40113 -0.96839,10.2922 v 10.53276 h -1.78781 -1.78783 z m 35.69074,1.80186 -0.0719,-12.96948 -4.40079,-0.15688 -4.40079,-0.15752 -0.0826,-1.63343 c -0.10725,-2.12123 -0.67149,-2.02831 11.63471,-1.91569 l 9.90177,0.0906 v 1.72928 1.72928 l -4.20522,0.15752 c -3.33097,0.12436 -4.25932,0.25509 -4.46535,0.6288 -0.15198,0.27551 -0.26187,5.66723 -0.26432,12.96948 l -0.004,12.49787 h -1.78477 -1.78477 z m 40.49799,12.66438 c 0,-0.26913 0.31672,-1.13498 1.78614,-4.88269 0.20339,-0.51911 0.86095,-2.14585 1.46123,-3.61576 1.0346,-2.53333 2.15885,-5.33107 3.41128,-8.48907 1.51082,-3.80957 2.22911,-5.60996 2.69697,-6.75986 0.28143,-0.69168 0.87733,-2.19163 1.32423,-3.33318 0.85046,-2.17244 1.18128,-2.48621 2.61378,-2.47913 2.13199,0.0128 1.84269,-0.47638 6.1653,10.37128 0.31009,0.77817 0.87435,2.19304 1.2539,3.1441 0.37956,0.95111 0.93813,2.36593 1.24127,3.14409 0.30314,0.77823 1.06612,2.68824 1.69553,4.24457 0.6294,1.55633 1.37315,3.39568 1.65278,4.08737 2.10715,5.21245 2.11705,4.87337 -0.14232,4.87337 -1.79477,0 -1.79477,0 -2.76347,-2.43672 -2.27954,-5.734 -1.13786,-5.10072 -9.19424,-5.10002 -3.40373,0 -6.33047,0.10458 -6.50383,0.23149 -0.27267,0.19961 -0.87901,1.58879 -2.743,6.28341 -0.39679,0.99939 -0.44474,1.02184 -2.18063,1.02184 -0.97621,0 -1.77492,-0.13711 -1.77492,-0.30484 z m 18.74551,-11.17094 c -0.0525,-0.34565 -0.40518,-1.40697 -0.78381,-2.35808 -0.70388,-1.76806 -1.25868,-3.20073 -1.88724,-4.87338 -0.19496,-0.51911 -0.7217,-1.86288 -1.17055,-2.98689 -0.44884,-1.12401 -0.88765,-2.29125 -0.97513,-2.59386 -0.32777,-1.13402 -0.72944,-0.55419 -2.1237,3.06546 -2.76344,7.1742 -3.55361,9.38018 -3.55361,9.92117 0,0.60521 0.1685,0.62243 5.29472,0.53953 5.12297,-0.0829 5.29162,-0.10587 5.19932,-0.7142 z m 12.61015,-3.27272 v -14.77745 l 1.00223,-0.21492 c 2.51117,-0.53825 12.24371,0.0772 14.19205,0.89761 2.34978,0.98964 4.14819,2.66866 5.07832,4.74098 2.06488,4.60081 -0.0552,12.57159 -3.61546,13.59305 -1.33325,0.38264 -0.38111,2.47728 4.22197,9.28867 0.73185,1.083 0.54792,1.22221 -1.60273,1.21335 -1.81074,-0.006 -1.81074,-0.006 -3.02276,-2.04043 -0.66661,-1.11808 -1.38009,-2.28194 -1.58551,-2.5864 -0.20541,-0.3042 -0.87282,-1.33108 -1.48313,-2.28149 -1.36312,-2.12276 -1.25139,-2.0852 -5.62112,-1.89012 l -3.57565,0.15944 -0.13753,4.24456 -0.13752,4.24457 -1.85658,0.0931 -1.85658,0.0931 z m 13.54593,1.59695 c 2.53467,-1.02184 3.81802,-3.08485 3.83355,-6.16262 0.0251,-4.97076 -2.21927,-6.62453 -8.99047,-6.62453 h -4.4008 l -0.0747,6.27939 c -0.0412,3.45365 -0.0141,6.46018 0.0601,6.68122 0.21667,0.64545 7.88584,0.50636 9.57238,-0.17346 z m 13.95902,-1.59191 c 0,-13.15423 0.0469,-14.76425 0.43506,-14.93453 0.57058,-0.24999 16.56718,-0.23979 17.38754,0.0128 0.5699,0.17473 0.62395,0.35202 0.55011,1.80357 l -0.0819,1.61009 -7.28881,0.17027 c -4.00884,0.0937 -7.32325,0.19962 -7.36533,0.23597 -0.0421,0.0383 -0.0421,2.01084 0,4.38856 l 0.0765,4.3232 6.40535,0.15689 c 7.01706,0.17219 6.92211,0.14349 6.93034,2.10369 0.006,1.46921 -0.11424,1.49785 -7.00955,1.66921 l -6.32614,0.15688 -0.0768,4.37683 c -0.0496,2.82306 0.0284,4.49731 0.21954,4.71618 0.19004,0.21746 2.93097,0.39539 7.64068,0.49679 l 7.34433,0.15688 0.0832,1.65072 0.0832,1.65064 h -9.50359 -9.50358 z"
       id="path8" /></g></svg>
